# xmcd
#
# Track frame offsets:
#	150
#	23556
#	45162
#	58990
#	79140
#	99626
#	122710
#	146673
#	167896
#	185471
#	201679
#	222997
#	245571
#	261816
#	285251
#
# Disc length: 4089 seconds
#
# Revision: 1
# Processed by: cddbd v1.4b41PL1 Copyright (c) Steve Scherf et al.
# Submitted via: audiograbber 1.80
#
DISCID=de0ff70f
DTITLE=Saunders, John Lee - It's ALL Blues To Me (promotional)
DYEAR=1900
DGENRE=
TTITLE0=It's all blues
TTITLE1=One Crazy night
TTITLE2=Sat. night fish fry
TTITLE3=too low down
TTITLE4=Lost in the shuffle
TTITLE5=Never had it so good
TTITLE6=sorry shade of blue
TTITLE7=powerful stuff
TTITLE8=wuz up wit dat
TTITLE9=west coast blues
TTITLE10=foreclosure on the house of love
TTITLE11=Spanish inquisition
TTITLE12=No Man's a free man
TTITLE13=Love Police
TTITLE14=Space Traveler
EXTD=World Blue Productions\nP.O. Box 5687\nOakland, CA 94605\n\nwww.johnleesan
EXTD=ders.com
EXTT0=
EXTT1=
EXTT2=
EXTT3=
EXTT4=
EXTT5=
EXTT6=
EXTT7=
EXTT8=
EXTT9=
EXTT10=
EXTT11=
EXTT12=
EXTT13=
EXTT14=
PLAYORDER=
